<?xml version="1.0" standalone="no"?>
<!DOCTYPE svg PUBLIC "-//W3C//DTD SVG 20010904//EN"
 "http://www.w3.org/TR/2001/REC-SVG-20010904/DTD/svg10.dtd">
<svg version="1.0" xmlns="http://www.w3.org/2000/svg"
 width="300.000000pt" height="300.000000pt" viewBox="0 0 300.000000 300.000000"
 preserveAspectRatio="xMidYMid meet">
<metadata>
Created by potrace 1.11, written by Peter Selinger 2001-2013
</metadata>
<g transform="translate(0.000000,300.000000) scale(0.100000,-0.100000)"
fill="#000000" stroke="none">
<path d="M1369 2996 c-2 -2 -29 -6 -59 -9 -30 -3 -66 -9 -80 -12 -14 -3 -38
-8 -55 -10 -16 -3 -77 -21 -135 -40 -58 -20 -115 -39 -127 -42 -13 -3 -23 -9
-23 -14 0 -5 -6 -9 -14 -9 -23 0 -156 -74 -241 -135 -74 -53 -109 -82 -194
-165 -58 -57 -201 -230 -201 -243 0 -3 -17 -34 -38 -68 -40 -67 -109 -215
-116 -246 -1 -10 -6 -25 -9 -33 -14 -37 -36 -118 -41 -147 -2 -17 -7 -36 -10
-41 -19 -31 -28 -338 -13 -472 15 -149 70 -328 150 -490 31 -63 138 -226 184
-279 45 -53 181 -191 188 -191 3 0 32 -22 65 -48 33 -27 72 -55 87 -62 15 -8
41 -23 58 -34 50 -34 218 -111 290 -132 73 -22 125 -36 145 -40 14 -2 34 -6
45 -9 93 -20 372 -27 475 -11 30 4 64 9 76 11 51 7 190 47 261 76 79 31 184
80 193 89 3 3 21 14 40 24 162 88 351 268 475 451 81 122 181 334 200 430 3
11 14 65 26 120 30 141 32 419 4 565 -41 207 -148 449 -271 613 -64 85 -172
200 -250 265 -50 42 -225 158 -232 154 -2 -2 -8 0 -11 5 -9 12 -113 61 -190
89 -81 30 -190 60 -256 70 -16 2 -41 7 -55 11 -27 6 -335 14 -341 9z"/>
</g>
</svg>
